<svg width="64" height="63" viewBox="0 0 64 63" fill="none" xmlns="http://www.w3.org/2000/svg">
<rect width="64" height="63" rx="30" fill="#F7F6F2"/>
<path d="M36.0833 41.4688C36.0833 43.9673 34.0272 46 31.5 46C28.9727 46 26.9167 43.9673 26.9167 41.4688C26.9167 38.9702 28.9727 36.9375 31.5 36.9375C34.0272 36.9375 36.0833 38.9702 36.0833 41.4688ZM27.4472 18.4273L28.2263 33.8335C28.263 34.557 28.8669 35.125 29.5996 35.125H33.4004C34.1331 35.125 34.737 34.557 34.7736 33.8335L35.5528 18.4273C35.592 17.6508 34.9659 17 34.1795 17H28.8205C28.0341 17 27.4079 17.6508 27.4472 18.4273Z" fill="#E71D1D"/>
</svg>
