<svg width="64" height="63" viewBox="0 0 64 63" fill="none" xmlns="http://www.w3.org/2000/svg">
<rect width="64" height="63" rx="30" fill="#F7F6F2"/>
<path fill-rule="evenodd" clip-rule="evenodd" d="M25.125 23.5C25.125 21.7761 25.8098 20.1228 27.0288 18.9038C28.2478 17.6848 29.9011 17 31.625 17C33.3489 17 35.0022 17.6848 36.2212 18.9038C37.4402 20.1228 38.125 21.7761 38.125 23.5C38.125 25.2239 37.4402 26.8772 36.2212 28.0962C35.0022 29.3152 33.3489 30 31.625 30C29.9011 30 28.2478 29.3152 27.0288 28.0962C25.8098 26.8772 25.125 25.2239 25.125 23.5ZM25.125 33.25C22.9701 33.25 20.9035 34.106 19.3798 35.6298C17.856 37.1535 17 39.2201 17 41.375C17 42.6679 17.5136 43.9079 18.4279 44.8221C19.3421 45.7364 20.5821 46.25 21.875 46.25H41.375C42.6679 46.25 43.9079 45.7364 44.8221 44.8221C45.7364 43.9079 46.25 42.6679 46.25 41.375C46.25 39.2201 45.394 37.1535 43.8702 35.6298C42.3465 34.106 40.2799 33.25 38.125 33.25H25.125Z" fill="#1D61E7"/>
</svg>
